# Blender v2.92.0 OBJ File: ''
# www.blender.org
mtllib donut.mtl
o Cube
v 1.000000 0.000000 0.000000
v 0.941421 0.000000 0.141421
v 0.800000 0.000000 0.200000
v 0.658579 0.000000 0.141421
v 0.600000 0.000000 0.000000
v 0.658579 0.000000 -0.141421
v 0.800000 0.000000 -0.200000
v 0.941421 0.000000 -0.141421
v 0.923880 0.382683 0.000000
v 0.869760 0.360266 0.141421
v 0.739104 0.306147 0.200000
v 0.608447 0.252027 0.141421
v 0.554328 0.229610 0.000000
v 0.608447 0.252027 -0.141421
v 0.739104 0.306147 -0.200000
v 0.869760 0.360266 -0.141421
v 0.707107 0.707107 0.000000
v 0.665685 0.665686 0.141421
v 0.565685 0.565686 0.200000
v 0.465685 0.465686 0.141421
v 0.424264 0.424264 0.000000
v 0.465685 0.465686 -0.141421
v 0.565685 0.565686 -0.200000
v 0.665685 0.665686 -0.141421
v 0.382684 0.923879 0.000000
v 0.360267 0.869760 0.141421
v 0.306147 0.739104 0.200000
v 0.252027 0.608447 0.141421
v 0.229610 0.554328 0.000000
v 0.252027 0.608447 -0.141421
v 0.306147 0.739104 -0.200000
v 0.360267 0.869760 -0.141421
v 0.000000 1.000000 0.000000
v 0.000000 0.941421 0.141421
v 0.000000 0.800000 0.200000
v 0.000000 0.658579 0.141421
v 0.000000 0.600000 0.000000
v 0.000000 0.658579 -0.141421
v 0.000000 0.800000 -0.200000
v 0.000000 0.941421 -0.141421
v -0.382684 0.923880 0.000000
v -0.360266 0.869760 0.141421
v -0.306147 0.739104 0.200000
v -0.252027 0.608447 0.141421
v -0.229610 0.554328 0.000000
v -0.252027 0.608447 -0.141421
v -0.306147 0.739104 -0.200000
v -0.360266 0.869760 -0.141421
v -0.707107 0.707107 0.000000
v -0.665686 0.665685 0.141421
v -0.565686 0.565685 0.200000
v -0.465686 0.465685 0.141421
v -0.424264 0.424264 0.000000
v -0.465686 0.465685 -0.141421
v -0.565686 0.565685 -0.200000
v -0.665686 0.665685 -0.141421
v -0.923880 0.382684 0.000000
v -0.869760 0.360266 0.141421
v -0.739104 0.306147 0.200000
v -0.608447 0.252027 0.141421
v -0.554328 0.229610 0.000000
v -0.608447 0.252027 -0.141421
v -0.739104 0.306147 -0.200000
v -0.869760 0.360266 -0.141421
v -1.000000 0.000000 0.000000
v -0.941421 0.000000 0.141421
v -0.800000 0.000000 0.200000
v -0.658579 0.000000 0.141421
v -0.600000 0.000000 0.000000
v -0.658579 0.000000 -0.141421
v -0.800000 0.000000 -0.200000
v -0.941421 0.000000 -0.141421
v -0.923880 -0.382683 0.000000
v -0.869760 -0.360266 0.141421
v -0.739104 -0.306146 0.200000
v -0.608447 -0.252027 0.141421
v -0.554328 -0.229610 0.000000
v -0.608447 -0.252027 -0.141421
v -0.739104 -0.306146 -0.200000
v -0.869760 -0.360266 -0.141421
v -0.707107 -0.707107 0.000000
v -0.665686 -0.665685 0.141421
v -0.565686 -0.565685 0.200000
v -0.465686 -0.465685 0.141421
v -0.424264 -0.424264 0.000000
v -0.465686 -0.465685 -0.141421
v -0.565686 -0.565685 -0.200000
v -0.665686 -0.665685 -0.141421
v -0.382684 -0.923880 0.000000
v -0.360266 -0.869760 0.141421
v -0.306147 -0.739103 0.200000
v -0.252027 -0.608447 0.141421
v -0.229610 -0.554328 0.000000
v -0.252027 -0.608447 -0.141421
v -0.306147 -0.739104 -0.200000
v -0.360266 -0.869760 -0.141421
v 0.000000 -1.000000 0.000000
v 0.000000 -0.941421 0.141421
v 0.000000 -0.800000 0.200000
v 0.000000 -0.658579 0.141421
v 0.000000 -0.600000 0.000000
v 0.000000 -0.658579 -0.141421
v 0.000000 -0.800000 -0.200000
v 0.000000 -0.941421 -0.141421
v 0.382684 -0.923879 0.000000
v 0.360267 -0.869760 0.141421
v 0.306147 -0.739103 0.200000
v 0.252027 -0.608447 0.141421
v 0.229610 -0.554328 0.000000
v 0.252027 -0.608447 -0.141421
v 0.306147 -0.739103 -0.200000
v 0.360267 -0.869760 -0.141421
v 0.707106 -0.707107 0.000000
v 0.665685 -0.665686 0.141421
v 0.565685 -0.565686 0.200000
v 0.465685 -0.465686 0.141421
v 0.424264 -0.424264 0.000000
v 0.465685 -0.465686 -0.141421
v 0.565685 -0.565686 -0.200000
v 0.665685 -0.665686 -0.141421
v 0.923879 -0.382684 0.000000
v 0.869760 -0.360267 0.141421
v 0.739103 -0.306147 0.200000
v 0.608447 -0.252027 0.141421
v 0.554328 -0.229610 0.000000
v 0.608447 -0.252027 -0.141421
v 0.739103 -0.306147 -0.200000
v 0.869760 -0.360267 -0.141421
vt 0.500000 0.500000
vt 0.562500 0.625000
vt 0.500000 0.625000
vt 0.562500 0.750000
vt 0.500000 0.750000
vt 0.562500 0.875000
vt 0.500000 0.875000
vt 0.500000 1.000000
vt 0.562500 0.000000
vt 0.500000 0.125000
vt 0.500000 0.000000
vt 0.562500 0.125000
vt 0.500000 0.250000
vt 0.562500 0.250000
vt 0.500000 0.375000
vt 0.562500 0.375000
vt 0.625000 0.500000
vt 0.562500 0.500000
vt 0.625000 0.625000
vt 0.625000 0.750000
vt 0.625000 0.875000
vt 0.562500 1.000000
vt 0.625000 0.000000
vt 0.625000 0.250000
vt 0.625000 0.375000
vt 0.687500 0.500000
vt 0.687500 0.750000
vt 0.687500 0.875000
vt 0.625000 1.000000
vt 0.687500 0.000000
vt 0.625000 0.125000
vt 0.687500 0.125000
vt 0.687500 0.250000
vt 0.750000 0.625000
vt 0.687500 0.625000
vt 0.750000 0.750000
vt 0.750000 1.000000
vt 0.687500 1.000000
vt 0.750000 0.125000
vt 0.750000 0.250000
vt 0.750000 0.375000
vt 0.687500 0.375000
vt 0.812500 0.500000
vt 0.750000 0.500000
vt 0.812500 0.750000
vt 0.812500 0.875000
vt 0.750000 0.875000
vt 0.812500 0.000000
vt 0.750000 0.000000
vt 0.812500 0.125000
vt 0.812500 0.250000
vt 0.812500 0.375000
vt 0.875000 0.500000
vt 0.812500 0.625000
vt 0.875000 0.750000
vt 0.875000 0.875000
vt 0.812500 1.000000
vt 0.875000 0.125000
vt 0.875000 0.250000
vt 0.875000 0.375000
vt 0.937500 0.625000
vt 0.875000 0.625000
vt 0.937500 0.750000
vt 0.937500 1.000000
vt 0.875000 1.000000
vt 0.937500 0.000000
vt 0.875000 0.000000
vt 0.937500 0.125000
vt 0.937500 0.250000
vt 0.937500 0.375000
vt 1.000000 0.500000
vt 0.937500 0.500000
vt 1.000000 0.750000
vt 0.937500 0.875000
vt 1.000000 0.875000
vt 1.000000 0.000000
vt 1.000000 0.125000
vt 1.000000 0.250000
vt 1.000000 0.375000
vt 0.062500 0.500000
vt 0.000000 0.625000
vt 0.000000 0.500000
vt 0.062500 0.625000
vt 0.000000 0.750000
vt 0.062500 0.750000
vt 0.000000 0.875000
vt 0.062500 0.875000
vt 0.000000 1.000000
vt 0.062500 0.000000
vt 0.000000 0.125000
vt 0.000000 0.000000
vt 0.062500 0.125000
vt 0.000000 0.250000
vt 0.062500 0.250000
vt 0.000000 0.375000
vt 0.062500 0.375000
vt 0.125000 0.500000
vt 0.125000 0.625000
vt 0.125000 0.750000
vt 0.125000 0.875000
vt 0.062500 1.000000
vt 0.125000 0.125000
vt 0.125000 0.250000
vt 0.125000 0.375000
vt 0.187500 0.625000
vt 0.187500 0.750000
vt 0.187500 1.000000
vt 0.125000 1.000000
vt 0.125000 0.000000
vt 0.187500 0.125000
vt 0.187500 0.250000
vt 0.187500 0.375000
vt 0.250000 0.500000
vt 0.187500 0.500000
vt 0.250000 0.750000
vt 0.250000 0.875000
vt 0.187500 0.875000
vt 0.250000 1.000000
vt 0.250000 0.000000
vt 0.187500 0.000000
vt 0.250000 0.125000
vt 0.250000 0.250000
vt 0.250000 0.375000
vt 0.312500 0.500000
vt 0.250000 0.625000
vt 0.312500 0.625000
vt 0.312500 0.750000
vt 0.312500 0.875000
vt 0.312500 0.000000
vt 0.312500 0.125000
vt 0.312500 0.375000
vt 0.375000 0.500000
vt 0.375000 0.625000
vt 0.375000 0.750000
vt 0.375000 0.875000
vt 0.312500 1.000000
vt 0.375000 0.000000
vt 0.375000 0.250000
vt 0.312500 0.250000
vt 0.375000 0.375000
vt 0.437500 0.625000
vt 0.437500 0.750000
vt 0.437500 0.875000
vt 0.375000 1.000000
vt 0.437500 0.000000
vt 0.375000 0.125000
vt 0.437500 0.125000
vt 0.437500 0.375000
vt 0.437500 0.500000
vt 0.437500 1.000000
vt 0.437500 0.250000
vt 1.000000 0.625000
vt 1.000000 1.000000
vn 0.9087 0.1807 0.3764
vn 0.3816 0.0759 0.9212
vn -0.3816 -0.0759 0.9212
vn -0.9087 -0.1807 0.3764
vn -0.9087 -0.1807 -0.3764
vn -0.3816 -0.0759 -0.9212
vn 0.3816 0.0759 -0.9212
vn 0.9087 0.1807 -0.3764
vn 0.7703 0.5147 0.3764
vn 0.3235 0.2161 0.9212
vn -0.3235 -0.2161 0.9212
vn -0.7703 -0.5147 0.3764
vn -0.7703 -0.5147 -0.3764
vn -0.3235 -0.2161 -0.9212
vn 0.3235 0.2161 -0.9212
vn 0.7703 0.5147 -0.3764
vn 0.5147 0.7703 0.3764
vn 0.2161 0.3235 0.9212
vn -0.2161 -0.3235 0.9212
vn -0.5147 -0.7703 0.3764
vn -0.5147 -0.7703 -0.3764
vn -0.2161 -0.3235 -0.9212
vn 0.2161 0.3235 -0.9212
vn 0.5147 0.7703 -0.3764
vn 0.1807 0.9087 0.3764
vn 0.0759 0.3816 0.9212
vn -0.0759 -0.3816 0.9212
vn -0.1807 -0.9087 0.3764
vn -0.1807 -0.9087 -0.3764
vn -0.0759 -0.3816 -0.9212
vn 0.0759 0.3816 -0.9212
vn 0.1807 0.9087 -0.3764
vn -0.1807 0.9087 0.3764
vn -0.0759 0.3816 0.9212
vn 0.0759 -0.3816 0.9212
vn 0.1807 -0.9087 0.3764
vn 0.1807 -0.9087 -0.3764
vn 0.0759 -0.3816 -0.9212
vn -0.0759 0.3816 -0.9212
vn -0.1807 0.9087 -0.3764
vn -0.5147 0.7703 0.3764
vn -0.2161 0.3235 0.9212
vn 0.2161 -0.3235 0.9212
vn 0.5147 -0.7703 0.3764
vn 0.5147 -0.7703 -0.3764
vn 0.2161 -0.3235 -0.9212
vn -0.2161 0.3235 -0.9212
vn -0.5147 0.7703 -0.3764
vn -0.7703 0.5147 0.3764
vn -0.3235 0.2161 0.9212
vn 0.3235 -0.2161 0.9212
vn 0.7703 -0.5147 0.3764
vn 0.7703 -0.5147 -0.3764
vn 0.3235 -0.2161 -0.9212
vn -0.3235 0.2161 -0.9212
vn -0.7703 0.5147 -0.3764
vn -0.9087 0.1807 0.3764
vn -0.3816 0.0759 0.9212
vn 0.3816 -0.0759 0.9212
vn 0.9087 -0.1807 0.3764
vn 0.9087 -0.1807 -0.3764
vn 0.3816 -0.0759 -0.9212
vn -0.3816 0.0759 -0.9212
vn -0.9087 0.1807 -0.3764
usemtl Material
s off
f 1/1/1 10/2/1 2/3/1
f 2/3/2 11/4/2 3/5/2
f 3/5/3 12/6/3 4/7/3
f 12/6/4 5/8/4 4/7/4
f 13/9/5 6/10/5 5/11/5
f 14/12/6 7/13/6 6/10/6
f 15/14/7 8/15/7 7/13/7
f 16/16/8 1/1/8 8/15/8
f 17/17/9 10/2/9 9/18/9
f 18/19/10 11/4/10 10/2/10
f 19/20/11 12/6/11 11/4/11
f 20/21/12 13/22/12 12/6/12
f 21/23/13 14/12/13 13/9/13
f 14/12/14 23/24/14 15/14/14
f 15/14/15 24/25/15 16/16/15
f 24/25/16 9/18/16 16/16/16
f 25/26/17 18/19/17 17/17/17
f 18/19/18 27/27/18 19/20/18
f 27/27/19 20/21/19 19/20/19
f 28/28/20 21/29/20 20/21/20
f 29/30/21 22/31/21 21/23/21
f 30/32/22 23/24/22 22/31/22
f 31/33/23 24/25/23 23/24/23
f 24/25/24 25/26/24 17/17/24
f 25/26/25 34/34/25 26/35/25
f 34/34/26 27/27/26 26/35/26
f 35/36/27 28/28/27 27/27/27
f 28/28/28 37/37/28 29/38/28
f 29/30/29 38/39/29 30/32/29
f 30/32/30 39/40/30 31/33/30
f 31/33/31 40/41/31 32/42/31
f 40/41/32 25/26/32 32/42/32
f 41/43/33 34/34/33 33/44/33
f 34/34/34 43/45/34 35/36/34
f 35/36/35 44/46/35 36/47/35
f 44/46/36 37/37/36 36/47/36
f 45/48/37 38/39/37 37/49/37
f 46/50/38 39/40/38 38/39/38
f 47/51/39 40/41/39 39/40/39
f 48/52/40 33/44/40 40/41/40
f 49/53/41 42/54/41 41/43/41
f 42/54/42 51/55/42 43/45/42
f 51/55/43 44/46/43 43/45/43
f 52/56/44 45/57/44 44/46/44
f 45/48/45 54/58/45 46/50/45
f 46/50/46 55/59/46 47/51/46
f 55/59/47 48/52/47 47/51/47
f 56/60/48 41/43/48 48/52/48
f 49/53/49 58/61/49 50/62/49
f 58/61/50 51/55/50 50/62/50
f 59/63/51 52/56/51 51/55/51
f 52/56/52 61/64/52 53/65/52
f 61/66/53 54/58/53 53/67/53
f 62/68/54 55/59/54 54/58/54
f 63/69/55 56/60/55 55/59/55
f 64/70/56 49/53/56 56/60/56
f 65/71/57 58/61/57 57/72/57
f 58/61/58 67/73/58 59/63/58
f 67/73/59 60/74/59 59/63/59
f 68/75/60 61/64/60 60/74/60
f 69/76/61 62/68/61 61/66/61
f 70/77/62 63/69/62 62/68/62
f 71/78/63 64/70/63 63/69/63
f 72/79/64 57/72/64 64/70/64
f 73/80/4 66/81/4 65/82/4
f 74/83/3 67/84/3 66/81/3
f 75/85/2 68/86/2 67/84/2
f 76/87/1 69/88/1 68/86/1
f 77/89/8 70/90/8 69/91/8
f 78/92/7 71/93/7 70/90/7
f 79/94/6 72/95/6 71/93/6
f 80/96/5 65/82/5 72/95/5
f 81/97/12 74/83/12 73/80/12
f 82/98/11 75/85/11 74/83/11
f 83/99/10 76/87/10 75/85/10
f 84/100/9 77/101/9 76/87/9
f 77/89/16 86/102/16 78/92/16
f 78/92/15 87/103/15 79/94/15
f 79/94/14 88/104/14 80/96/14
f 80/96/13 81/97/13 73/80/13
f 81/97/20 90/105/20 82/98/20
f 82/98/19 91/106/19 83/99/19
f 91/106/18 84/100/18 83/99/18
f 84/100/17 93/107/17 85/108/17
f 85/109/24 94/110/24 86/102/24
f 94/110/23 87/103/23 86/102/23
f 95/111/22 88/104/22 87/103/22
f 96/112/21 81/97/21 88/104/21
f 97/113/28 90/105/28 89/114/28
f 90/105/27 99/115/27 91/106/27
f 91/106/26 100/116/26 92/117/26
f 92/117/25 101/118/25 93/107/25
f 101/119/32 94/110/32 93/120/32
f 102/121/31 95/111/31 94/110/31
f 103/122/30 96/112/30 95/111/30
f 104/123/29 89/114/29 96/112/29
f 105/124/36 98/125/36 97/113/36
f 106/126/35 99/115/35 98/125/35
f 107/127/34 100/116/34 99/115/34
f 108/128/33 101/118/33 100/116/33
f 109/129/40 102/121/40 101/119/40
f 110/130/39 103/122/39 102/121/39
f 103/122/38 112/131/38 104/123/38
f 104/123/37 105/124/37 97/113/37
f 113/132/44 106/126/44 105/124/44
f 114/133/43 107/127/43 106/126/43
f 115/134/42 108/128/42 107/127/42
f 116/135/41 109/136/41 108/128/41
f 117/137/48 110/130/48 109/129/48
f 110/130/47 119/138/47 111/139/47
f 111/139/46 120/140/46 112/131/46
f 120/140/45 105/124/45 112/131/45
f 113/132/52 122/141/52 114/133/52
f 114/133/51 123/142/51 115/134/51
f 123/142/50 116/135/50 115/134/50
f 124/143/49 117/144/49 116/135/49
f 125/145/56 118/146/56 117/137/56
f 126/147/55 119/138/55 118/146/55
f 119/138/54 128/148/54 120/140/54
f 128/148/53 113/132/53 120/140/53
f 1/1/60 122/141/60 121/149/60
f 122/141/59 3/5/59 123/142/59
f 3/5/58 124/143/58 123/142/58
f 4/7/57 125/150/57 124/143/57
f 5/11/64 126/147/64 125/145/64
f 126/147/63 7/13/63 127/151/63
f 127/151/62 8/15/62 128/148/62
f 8/15/61 121/149/61 128/148/61
f 1/1/1 9/18/1 10/2/1
f 2/3/2 10/2/2 11/4/2
f 3/5/3 11/4/3 12/6/3
f 12/6/4 13/22/4 5/8/4
f 13/9/5 14/12/5 6/10/5
f 14/12/6 15/14/6 7/13/6
f 15/14/7 16/16/7 8/15/7
f 16/16/8 9/18/8 1/1/8
f 17/17/9 18/19/9 10/2/9
f 18/19/10 19/20/10 11/4/10
f 19/20/11 20/21/11 12/6/11
f 20/21/12 21/29/12 13/22/12
f 21/23/13 22/31/13 14/12/13
f 14/12/14 22/31/14 23/24/14
f 15/14/15 23/24/15 24/25/15
f 24/25/16 17/17/16 9/18/16
f 25/26/17 26/35/17 18/19/17
f 18/19/18 26/35/18 27/27/18
f 27/27/19 28/28/19 20/21/19
f 28/28/20 29/38/20 21/29/20
f 29/30/21 30/32/21 22/31/21
f 30/32/22 31/33/22 23/24/22
f 31/33/23 32/42/23 24/25/23
f 24/25/24 32/42/24 25/26/24
f 25/26/25 33/44/25 34/34/25
f 34/34/26 35/36/26 27/27/26
f 35/36/27 36/47/27 28/28/27
f 28/28/28 36/47/28 37/37/28
f 29/30/29 37/49/29 38/39/29
f 30/32/30 38/39/30 39/40/30
f 31/33/31 39/40/31 40/41/31
f 40/41/32 33/44/32 25/26/32
f 41/43/33 42/54/33 34/34/33
f 34/34/34 42/54/34 43/45/34
f 35/36/35 43/45/35 44/46/35
f 44/46/36 45/57/36 37/37/36
f 45/48/37 46/50/37 38/39/37
f 46/50/38 47/51/38 39/40/38
f 47/51/39 48/52/39 40/41/39
f 48/52/40 41/43/40 33/44/40
f 49/53/41 50/62/41 42/54/41
f 42/54/42 50/62/42 51/55/42
f 51/55/43 52/56/43 44/46/43
f 52/56/44 53/65/44 45/57/44
f 45/48/45 53/67/45 54/58/45
f 46/50/46 54/58/46 55/59/46
f 55/59/47 56/60/47 48/52/47
f 56/60/48 49/53/48 41/43/48
f 49/53/49 57/72/49 58/61/49
f 58/61/50 59/63/50 51/55/50
f 59/63/51 60/74/51 52/56/51
f 52/56/52 60/74/52 61/64/52
f 61/66/53 62/68/53 54/58/53
f 62/68/54 63/69/54 55/59/54
f 63/69/55 64/70/55 56/60/55
f 64/70/56 57/72/56 49/53/56
f 65/71/57 66/152/57 58/61/57
f 58/61/58 66/152/58 67/73/58
f 67/73/59 68/75/59 60/74/59
f 68/75/60 69/153/60 61/64/60
f 69/76/61 70/77/61 62/68/61
f 70/77/62 71/78/62 63/69/62
f 71/78/63 72/79/63 64/70/63
f 72/79/64 65/71/64 57/72/64
f 73/80/4 74/83/4 66/81/4
f 74/83/3 75/85/3 67/84/3
f 75/85/2 76/87/2 68/86/2
f 76/87/1 77/101/1 69/88/1
f 77/89/8 78/92/8 70/90/8
f 78/92/7 79/94/7 71/93/7
f 79/94/6 80/96/6 72/95/6
f 80/96/5 73/80/5 65/82/5
f 81/97/12 82/98/12 74/83/12
f 82/98/11 83/99/11 75/85/11
f 83/99/10 84/100/10 76/87/10
f 84/100/9 85/108/9 77/101/9
f 77/89/16 85/109/16 86/102/16
f 78/92/15 86/102/15 87/103/15
f 79/94/14 87/103/14 88/104/14
f 80/96/13 88/104/13 81/97/13
f 81/97/20 89/114/20 90/105/20
f 82/98/19 90/105/19 91/106/19
f 91/106/18 92/117/18 84/100/18
f 84/100/17 92/117/17 93/107/17
f 85/109/24 93/120/24 94/110/24
f 94/110/23 95/111/23 87/103/23
f 95/111/22 96/112/22 88/104/22
f 96/112/21 89/114/21 81/97/21
f 97/113/28 98/125/28 90/105/28
f 90/105/27 98/125/27 99/115/27
f 91/106/26 99/115/26 100/116/26
f 92/117/25 100/116/25 101/118/25
f 101/119/32 102/121/32 94/110/32
f 102/121/31 103/122/31 95/111/31
f 103/122/30 104/123/30 96/112/30
f 104/123/29 97/113/29 89/114/29
f 105/124/36 106/126/36 98/125/36
f 106/126/35 107/127/35 99/115/35
f 107/127/34 108/128/34 100/116/34
f 108/128/33 109/136/33 101/118/33
f 109/129/40 110/130/40 102/121/40
f 110/130/39 111/139/39 103/122/39
f 103/122/38 111/139/38 112/131/38
f 104/123/37 112/131/37 105/124/37
f 113/132/44 114/133/44 106/126/44
f 114/133/43 115/134/43 107/127/43
f 115/134/42 116/135/42 108/128/42
f 116/135/41 117/144/41 109/136/41
f 117/137/48 118/146/48 110/130/48
f 110/130/47 118/146/47 119/138/47
f 111/139/46 119/138/46 120/140/46
f 120/140/45 113/132/45 105/124/45
f 113/132/52 121/149/52 122/141/52
f 114/133/51 122/141/51 123/142/51
f 123/142/50 124/143/50 116/135/50
f 124/143/49 125/150/49 117/144/49
f 125/145/56 126/147/56 118/146/56
f 126/147/55 127/151/55 119/138/55
f 119/138/54 127/151/54 128/148/54
f 128/148/53 121/149/53 113/132/53
f 1/1/60 2/3/60 122/141/60
f 122/141/59 2/3/59 3/5/59
f 3/5/58 4/7/58 124/143/58
f 4/7/57 5/8/57 125/150/57
f 5/11/64 6/10/64 126/147/64
f 126/147/63 6/10/63 7/13/63
f 127/151/62 7/13/62 8/15/62
f 8/15/61 1/1/61 121/149/61
